<mxfile host="Electron" modified="2023-07-25T18:49:06.631Z" agent="Mozilla/5.0 (Windows NT 10.0; Win64; x64) AppleWebKit/537.36 (KHTML, like Gecko) draw.io/21.6.5 Chrome/114.0.5735.243 Electron/25.3.1 Safari/537.36" etag="Ler0oHZBEA45OijW-L9W" version="21.6.5" type="device">
  <diagram id="krtvxuZzbhJMvh-bHt3j" name="Страница 1">
    <mxGraphModel dx="3160" dy="2549" grid="1" gridSize="10" guides="1" tooltips="1" connect="1" arrows="1" fold="1" page="1" pageScale="1" pageWidth="827" pageHeight="1169" math="0" shadow="0">
      <root>
        <mxCell id="0" />
        <mxCell id="1" parent="0" />
        <mxCell id="tqI9NvLyuhE54j6zXk4g-2" value="Пользователь" style="swimlane;childLayout=stackLayout;horizontal=1;startSize=30;horizontalStack=0;rounded=1;fontSize=14;fontStyle=0;strokeWidth=2;resizeParent=0;resizeLast=1;shadow=0;dashed=0;align=center;labelBackgroundColor=#FFFFFF;labelBorderColor=none;fillColor=#d5e8d4;strokeColor=#82b366;" parent="1" vertex="1">
          <mxGeometry x="1500" y="-550" width="180" height="90" as="geometry" />
        </mxCell>
        <mxCell id="tqI9NvLyuhE54j6zXk4g-3" value="*Электронная почта&#xa;Пароль&#xa;Имя" style="align=left;strokeColor=none;fillColor=none;spacingLeft=4;fontSize=12;verticalAlign=top;resizable=0;rotatable=0;part=1;labelBackgroundColor=#FFFFFF;labelBorderColor=none;" parent="tqI9NvLyuhE54j6zXk4g-2" vertex="1">
          <mxGeometry y="30" width="180" height="60" as="geometry" />
        </mxCell>
        <mxCell id="tqI9NvLyuhE54j6zXk4g-6" value="Дом" style="swimlane;childLayout=stackLayout;horizontal=1;startSize=30;horizontalStack=0;rounded=1;fontSize=14;fontStyle=0;strokeWidth=2;resizeParent=0;resizeLast=1;shadow=0;dashed=0;align=center;labelBackgroundColor=#FFFFFF;labelBorderColor=none;fillColor=#d5e8d4;strokeColor=#82b366;" parent="1" vertex="1">
          <mxGeometry x="980" y="-560" width="160" height="90" as="geometry" />
        </mxCell>
        <mxCell id="tqI9NvLyuhE54j6zXk4g-7" value="*Название" style="align=left;strokeColor=none;fillColor=none;spacingLeft=4;fontSize=12;verticalAlign=top;resizable=0;rotatable=0;part=1;labelBackgroundColor=#FFFFFF;labelBorderColor=none;" parent="tqI9NvLyuhE54j6zXk4g-6" vertex="1">
          <mxGeometry y="30" width="160" height="60" as="geometry" />
        </mxCell>
        <mxCell id="DIUErc0MwvzvvG02N23n-2" value="Тип устройства" style="swimlane;childLayout=stackLayout;horizontal=1;startSize=30;horizontalStack=0;rounded=1;fontSize=14;fontStyle=0;strokeWidth=2;resizeParent=0;resizeLast=1;shadow=0;dashed=0;align=center;labelBackgroundColor=#FFFFFF;labelBorderColor=none;fillColor=#d5e8d4;strokeColor=#82b366;" parent="1" vertex="1">
          <mxGeometry x="-240" y="-900" width="160" height="90" as="geometry" />
        </mxCell>
        <mxCell id="DIUErc0MwvzvvG02N23n-3" value="*название" style="align=left;strokeColor=none;fillColor=none;spacingLeft=4;fontSize=12;verticalAlign=top;resizable=0;rotatable=0;part=1;labelBackgroundColor=#FFFFFF;labelBorderColor=none;" parent="DIUErc0MwvzvvG02N23n-2" vertex="1">
          <mxGeometry y="30" width="160" height="60" as="geometry" />
        </mxCell>
        <mxCell id="DIUErc0MwvzvvG02N23n-4" value="Комната" style="swimlane;childLayout=stackLayout;horizontal=1;startSize=30;horizontalStack=0;rounded=1;fontSize=14;fontStyle=0;strokeWidth=2;resizeParent=0;resizeLast=1;shadow=0;dashed=0;align=center;labelBackgroundColor=#FFFFFF;labelBorderColor=none;fillColor=#d5e8d4;strokeColor=#82b366;" parent="1" vertex="1">
          <mxGeometry x="580" y="-220" width="160" height="90" as="geometry" />
        </mxCell>
        <mxCell id="DIUErc0MwvzvvG02N23n-5" value="*Название" style="align=left;strokeColor=none;fillColor=none;spacingLeft=4;fontSize=12;verticalAlign=top;resizable=0;rotatable=0;part=1;labelBackgroundColor=#FFFFFF;labelBorderColor=none;" parent="DIUErc0MwvzvvG02N23n-4" vertex="1">
          <mxGeometry y="30" width="160" height="60" as="geometry" />
        </mxCell>
        <mxCell id="DIUErc0MwvzvvG02N23n-6" value="Сценарий" style="swimlane;childLayout=stackLayout;horizontal=1;startSize=30;horizontalStack=0;rounded=1;fontSize=14;fontStyle=0;strokeWidth=2;resizeParent=0;resizeLast=1;shadow=0;dashed=0;align=center;labelBackgroundColor=#FFFFFF;labelBorderColor=none;fillColor=#d5e8d4;strokeColor=#82b366;" parent="1" vertex="1">
          <mxGeometry x="610" y="-970" width="210" height="100" as="geometry" />
        </mxCell>
        <mxCell id="DIUErc0MwvzvvG02N23n-7" value="*Название&#xa;статус" style="align=left;strokeColor=none;fillColor=none;spacingLeft=4;fontSize=12;verticalAlign=top;resizable=0;rotatable=0;part=1;labelBackgroundColor=#FFFFFF;labelBorderColor=none;" parent="DIUErc0MwvzvvG02N23n-6" vertex="1">
          <mxGeometry y="30" width="210" height="70" as="geometry" />
        </mxCell>
        <mxCell id="DIUErc0MwvzvvG02N23n-8" value="Пользователь дома" style="swimlane;childLayout=stackLayout;horizontal=1;startSize=30;horizontalStack=0;rounded=1;fontSize=14;fontStyle=0;strokeWidth=2;resizeParent=0;resizeLast=1;shadow=0;dashed=0;align=center;labelBackgroundColor=#FFFFFF;labelBorderColor=none;fillColor=#d5e8d4;strokeColor=#82b366;" parent="1" vertex="1">
          <mxGeometry x="1260" y="-685" width="160" height="85" as="geometry" />
        </mxCell>
        <mxCell id="DIUErc0MwvzvvG02N23n-9" value="*Электронная почта &#xa;пользователя&#xa;*Название дома&#xa;" style="align=left;strokeColor=none;fillColor=none;spacingLeft=4;fontSize=12;verticalAlign=top;resizable=0;rotatable=0;part=1;labelBackgroundColor=#FFFFFF;labelBorderColor=none;" parent="DIUErc0MwvzvvG02N23n-8" vertex="1">
          <mxGeometry y="30" width="160" height="55" as="geometry" />
        </mxCell>
        <mxCell id="DIUErc0MwvzvvG02N23n-10" value="управляет" style="edgeStyle=entityRelationEdgeStyle;fontSize=12;html=1;endArrow=ERoneToMany;endFill=0;rounded=0;entryX=0;entryY=0.25;entryDx=0;entryDy=0;exitX=1;exitY=0.25;exitDx=0;exitDy=0;startArrow=ERmandOne;startFill=0;" parent="1" source="tqI9NvLyuhE54j6zXk4g-7" target="DIUErc0MwvzvvG02N23n-9" edge="1">
          <mxGeometry width="100" height="100" relative="1" as="geometry">
            <mxPoint x="870" y="-470" as="sourcePoint" />
            <mxPoint x="970" y="-570" as="targetPoint" />
          </mxGeometry>
        </mxCell>
        <mxCell id="DIUErc0MwvzvvG02N23n-11" value="является" style="edgeStyle=entityRelationEdgeStyle;fontSize=12;html=1;endArrow=ERzeroToMany;endFill=1;rounded=0;entryX=1;entryY=0.25;entryDx=0;entryDy=0;exitX=0;exitY=0.25;exitDx=0;exitDy=0;startArrow=ERmandOne;startFill=0;" parent="1" source="tqI9NvLyuhE54j6zXk4g-3" target="DIUErc0MwvzvvG02N23n-9" edge="1">
          <mxGeometry width="100" height="100" relative="1" as="geometry">
            <mxPoint x="1370" y="-500" as="sourcePoint" />
            <mxPoint x="1470" y="-600" as="targetPoint" />
          </mxGeometry>
        </mxCell>
        <mxCell id="DIUErc0MwvzvvG02N23n-12" value="содержит" style="edgeStyle=entityRelationEdgeStyle;fontSize=12;html=1;endArrow=ERmandOne;endFill=0;rounded=0;entryX=0;entryY=0.75;entryDx=0;entryDy=0;exitX=1;exitY=0.25;exitDx=0;exitDy=0;startArrow=ERzeroToMany;startFill=0;" parent="1" source="DIUErc0MwvzvvG02N23n-5" target="tqI9NvLyuhE54j6zXk4g-7" edge="1">
          <mxGeometry width="100" height="100" relative="1" as="geometry">
            <mxPoint x="780" y="-140" as="sourcePoint" />
            <mxPoint x="880" y="-240" as="targetPoint" />
          </mxGeometry>
        </mxCell>
        <mxCell id="DIUErc0MwvzvvG02N23n-13" value="включает" style="edgeStyle=entityRelationEdgeStyle;fontSize=12;html=1;endArrow=ERzeroToMany;endFill=1;rounded=0;exitX=1;exitY=0.25;exitDx=0;exitDy=0;entryX=0;entryY=0.5;entryDx=0;entryDy=0;startArrow=ERmandOne;startFill=0;" parent="1" source="DIUErc0MwvzvvG02N23n-3" target="DIUErc0MwvzvvG02N23n-15" edge="1">
          <mxGeometry width="100" height="100" relative="1" as="geometry">
            <mxPoint x="820" y="-580" as="sourcePoint" />
            <mxPoint x="550" y="-810" as="targetPoint" />
          </mxGeometry>
        </mxCell>
        <mxCell id="DIUErc0MwvzvvG02N23n-14" value="Устройство" style="swimlane;childLayout=stackLayout;horizontal=1;startSize=30;horizontalStack=0;rounded=1;fontSize=14;fontStyle=0;strokeWidth=2;resizeParent=0;resizeLast=1;shadow=0;dashed=0;align=center;labelBackgroundColor=#FFFFFF;labelBorderColor=none;fillColor=#d5e8d4;strokeColor=#82b366;" parent="1" vertex="1">
          <mxGeometry x="90" y="-730" width="160" height="110" as="geometry" />
        </mxCell>
        <mxCell id="DIUErc0MwvzvvG02N23n-15" value="*заводской код устройства&#xa;название&#xa;модель&#xa;производитель&#xa;статус" style="align=left;strokeColor=none;fillColor=none;spacingLeft=4;fontSize=12;verticalAlign=top;resizable=0;rotatable=0;part=1;labelBackgroundColor=#FFFFFF;labelBorderColor=none;" parent="DIUErc0MwvzvvG02N23n-14" vertex="1">
          <mxGeometry y="30" width="160" height="80" as="geometry" />
        </mxCell>
        <mxCell id="DIUErc0MwvzvvG02N23n-16" value="содержит" style="edgeStyle=entityRelationEdgeStyle;fontSize=12;html=1;endArrow=ERzeroToMany;endFill=1;rounded=0;entryX=1;entryY=0.25;entryDx=0;entryDy=0;exitX=0;exitY=0.5;exitDx=0;exitDy=0;startArrow=ERmandOne;startFill=0;" parent="1" source="tqI9NvLyuhE54j6zXk4g-7" target="DIUErc0MwvzvvG02N23n-15" edge="1">
          <mxGeometry width="100" height="100" relative="1" as="geometry">
            <mxPoint x="820" y="-580" as="sourcePoint" />
            <mxPoint x="920" y="-680" as="targetPoint" />
          </mxGeometry>
        </mxCell>
        <mxCell id="DIUErc0MwvzvvG02N23n-19" value="содержит" style="edgeStyle=entityRelationEdgeStyle;fontSize=12;html=1;endArrow=ERzeroToMany;endFill=1;rounded=0;entryX=1;entryY=0.5;entryDx=0;entryDy=0;exitX=0;exitY=0.5;exitDx=0;exitDy=0;startArrow=ERzeroToOne;startFill=0;" parent="1" source="DIUErc0MwvzvvG02N23n-4" target="DIUErc0MwvzvvG02N23n-15" edge="1">
          <mxGeometry width="100" height="100" relative="1" as="geometry">
            <mxPoint x="570" y="-290" as="sourcePoint" />
            <mxPoint x="490" y="-418.75" as="targetPoint" />
          </mxGeometry>
        </mxCell>
        <mxCell id="DIUErc0MwvzvvG02N23n-21" value="содержит" style="edgeStyle=entityRelationEdgeStyle;fontSize=12;html=1;endArrow=ERzeroToMany;endFill=1;rounded=0;exitX=0;exitY=0.25;exitDx=0;exitDy=0;entryX=1;entryY=0.5;entryDx=0;entryDy=0;startArrow=ERmandOne;startFill=0;" parent="1" source="tqI9NvLyuhE54j6zXk4g-7" target="DIUErc0MwvzvvG02N23n-7" edge="1">
          <mxGeometry width="100" height="100" relative="1" as="geometry">
            <mxPoint x="810" y="-660" as="sourcePoint" />
            <mxPoint x="910" y="-760" as="targetPoint" />
          </mxGeometry>
        </mxCell>
        <mxCell id="DIUErc0MwvzvvG02N23n-22" value="Устройство в сценарии" style="swimlane;childLayout=stackLayout;horizontal=1;startSize=30;horizontalStack=0;rounded=1;fontSize=14;fontStyle=0;strokeWidth=2;resizeParent=0;resizeLast=1;shadow=0;dashed=0;align=center;labelBackgroundColor=#FFFFFF;labelBorderColor=none;fillColor=#d5e8d4;strokeColor=#82b366;" parent="1" vertex="1">
          <mxGeometry x="340" y="-900" width="190" height="90" as="geometry" />
        </mxCell>
        <mxCell id="DIUErc0MwvzvvG02N23n-23" value="*заводской код устройства&#xa;*название сценария&#xa;статус устройства в сценарии" style="align=left;strokeColor=none;fillColor=none;spacingLeft=4;fontSize=12;verticalAlign=top;resizable=0;rotatable=0;part=1;labelBackgroundColor=#FFFFFF;labelBorderColor=none;" parent="DIUErc0MwvzvvG02N23n-22" vertex="1">
          <mxGeometry y="30" width="190" height="60" as="geometry" />
        </mxCell>
        <mxCell id="DIUErc0MwvzvvG02N23n-24" value="содержит" style="edgeStyle=entityRelationEdgeStyle;fontSize=12;html=1;endArrow=ERmandOne;endFill=0;rounded=0;exitX=1;exitY=0.5;exitDx=0;exitDy=0;entryX=0;entryY=0.5;entryDx=0;entryDy=0;startArrow=ERoneToMany;startFill=0;" parent="1" source="DIUErc0MwvzvvG02N23n-23" target="DIUErc0MwvzvvG02N23n-7" edge="1">
          <mxGeometry width="100" height="100" relative="1" as="geometry">
            <mxPoint x="580" y="-660" as="sourcePoint" />
            <mxPoint x="680" y="-760" as="targetPoint" />
          </mxGeometry>
        </mxCell>
        <mxCell id="DIUErc0MwvzvvG02N23n-25" value="является" style="edgeStyle=entityRelationEdgeStyle;fontSize=12;html=1;endArrow=ERzeroToMany;endFill=1;rounded=0;exitX=1;exitY=0.25;exitDx=0;exitDy=0;startArrow=ERmandOne;startFill=0;" parent="1" source="DIUErc0MwvzvvG02N23n-14" target="DIUErc0MwvzvvG02N23n-23" edge="1">
          <mxGeometry width="100" height="100" relative="1" as="geometry">
            <mxPoint x="430" y="-670" as="sourcePoint" />
            <mxPoint x="530" y="-770" as="targetPoint" />
          </mxGeometry>
        </mxCell>
        <mxCell id="DIUErc0MwvzvvG02N23n-26" value="Расписание в сценарии" style="swimlane;childLayout=stackLayout;horizontal=1;startSize=30;horizontalStack=0;rounded=1;fontSize=14;fontStyle=0;strokeWidth=2;resizeParent=0;resizeLast=1;shadow=0;dashed=0;align=center;labelBackgroundColor=#FFFFFF;labelBorderColor=none;fillColor=#d5e8d4;strokeColor=#82b366;" parent="1" vertex="1">
          <mxGeometry x="980" y="-1100" width="210" height="110" as="geometry" />
        </mxCell>
        <mxCell id="DIUErc0MwvzvvG02N23n-27" value="*Название сценария&#xa;*День недели&#xa;*время включения&#xa;время выключения" style="align=left;strokeColor=none;fillColor=none;spacingLeft=4;fontSize=12;verticalAlign=top;resizable=0;rotatable=0;part=1;labelBackgroundColor=#FFFFFF;labelBorderColor=none;" parent="DIUErc0MwvzvvG02N23n-26" vertex="1">
          <mxGeometry y="30" width="210" height="80" as="geometry" />
        </mxCell>
        <mxCell id="DIUErc0MwvzvvG02N23n-31" value="включает" style="edgeStyle=entityRelationEdgeStyle;fontSize=12;html=1;endArrow=ERzeroToMany;endFill=1;rounded=0;entryX=0;entryY=0.25;entryDx=0;entryDy=0;exitX=1;exitY=0.25;exitDx=0;exitDy=0;startArrow=ERmandOne;startFill=0;" parent="1" source="DIUErc0MwvzvvG02N23n-7" target="DIUErc0MwvzvvG02N23n-27" edge="1">
          <mxGeometry width="100" height="100" relative="1" as="geometry">
            <mxPoint x="770" y="-1000" as="sourcePoint" />
            <mxPoint x="940" y="-1075" as="targetPoint" />
          </mxGeometry>
        </mxCell>
        <mxCell id="DIUErc0MwvzvvG02N23n-32" value="Тип комнаты" style="swimlane;childLayout=stackLayout;horizontal=1;startSize=30;horizontalStack=0;rounded=1;fontSize=14;fontStyle=0;strokeWidth=2;resizeParent=0;resizeLast=1;shadow=0;dashed=0;align=center;labelBackgroundColor=#FFFFFF;labelBorderColor=none;fillColor=#d5e8d4;strokeColor=#82b366;" parent="1" vertex="1">
          <mxGeometry x="270" y="-110" width="160" height="90" as="geometry" />
        </mxCell>
        <mxCell id="DIUErc0MwvzvvG02N23n-33" value="*Название&#xa;Иконка" style="align=left;strokeColor=none;fillColor=none;spacingLeft=4;fontSize=12;verticalAlign=top;resizable=0;rotatable=0;part=1;labelBackgroundColor=#FFFFFF;labelBorderColor=none;" parent="DIUErc0MwvzvvG02N23n-32" vertex="1">
          <mxGeometry y="30" width="160" height="60" as="geometry" />
        </mxCell>
        <mxCell id="DIUErc0MwvzvvG02N23n-36" value="относится" style="edgeStyle=entityRelationEdgeStyle;fontSize=12;html=1;endArrow=ERzeroToMany;endFill=1;rounded=0;exitX=1;exitY=0.25;exitDx=0;exitDy=0;startArrow=ERmandOne;startFill=0;" parent="1" source="DIUErc0MwvzvvG02N23n-33" target="DIUErc0MwvzvvG02N23n-5" edge="1">
          <mxGeometry width="100" height="100" relative="1" as="geometry">
            <mxPoint x="380" y="-80" as="sourcePoint" />
            <mxPoint x="330" as="targetPoint" />
          </mxGeometry>
        </mxCell>
        <mxCell id="62dAW0HZFfS3AwfifUmD-1" value="Расписание" style="swimlane;childLayout=stackLayout;horizontal=1;startSize=30;horizontalStack=0;rounded=1;fontSize=14;fontStyle=0;strokeWidth=2;resizeParent=0;resizeLast=1;shadow=0;dashed=0;align=center;labelBackgroundColor=#FFFFFF;labelBorderColor=none;fillColor=#d5e8d4;strokeColor=#82b366;" parent="1" vertex="1">
          <mxGeometry x="1330" y="-990" width="210" height="90" as="geometry" />
        </mxCell>
        <mxCell id="62dAW0HZFfS3AwfifUmD-2" value="*День недели&#xa;*время включения" style="align=left;strokeColor=none;fillColor=none;spacingLeft=4;fontSize=12;verticalAlign=top;resizable=0;rotatable=0;part=1;labelBackgroundColor=#FFFFFF;labelBorderColor=none;" parent="62dAW0HZFfS3AwfifUmD-1" vertex="1">
          <mxGeometry y="30" width="210" height="60" as="geometry" />
        </mxCell>
        <mxCell id="62dAW0HZFfS3AwfifUmD-3" value="" style="edgeStyle=entityRelationEdgeStyle;fontSize=12;html=1;endArrow=ERmandOne;endFill=0;rounded=0;entryX=0;entryY=0.25;entryDx=0;entryDy=0;exitX=1;exitY=0.25;exitDx=0;exitDy=0;startArrow=ERzeroToMany;startFill=0;" parent="1" source="DIUErc0MwvzvvG02N23n-27" target="62dAW0HZFfS3AwfifUmD-2" edge="1">
          <mxGeometry width="100" height="100" relative="1" as="geometry">
            <mxPoint x="1220" y="-960" as="sourcePoint" />
            <mxPoint x="1320" y="-1060" as="targetPoint" />
          </mxGeometry>
        </mxCell>
      </root>
    </mxGraphModel>
  </diagram>
</mxfile>
